<svg width="17" height="27" viewBox="0 0 17 27" fill="none" xmlns="http://www.w3.org/2000/svg">
<g clip-path="url(#clip0_665_3)">
<path d="M16.5006 19.0583C17.1647 19.7175 17.1647 20.7853 16.5006 21.4445C16.1712 21.7741 15.7356 21.9376 15.3 21.9376C14.8644 21.9376 14.4298 21.7728 14.0983 21.4432L8.5 15.889L2.90222 21.4419C2.57019 21.7741 2.13509 21.9376 1.7 21.9376C1.26491 21.9376 0.830344 21.7741 0.498047 21.4419C-0.166016 20.7827 -0.166016 19.7148 0.498047 19.0557L6.09742 13.4975L0.498047 7.94189C-0.166016 7.28271 -0.166016 6.21484 0.498047 5.55566C1.16211 4.89648 2.23789 4.89648 2.90195 5.55566L8.5 11.1165L14.0994 5.5583C14.7634 4.89912 15.8392 4.89912 16.5033 5.5583C17.1673 6.21748 17.1673 7.28535 16.5033 7.94453L10.9039 13.5027L16.5006 19.0583Z" fill="#26348D"/>
</g>
<defs>
<clipPath id="clip0_665_3">
<rect width="17" height="27" fill="white"/>
</clipPath>
</defs>
</svg>
